<svg width="1742" height="28" viewBox="0 0 1742 28" fill="none" xmlns="http://www.w3.org/2000/svg">
<path opacity="0.5" d="M0.666667 14C0.666667 21.3638 6.6362 27.3333 14 27.3333C21.3638 27.3333 27.3333 21.3638 27.3333 14C27.3333 6.6362 21.3638 0.666667 14 0.666667C6.6362 0.666667 0.666667 6.6362 0.666667 14ZM1714.67 14C1714.67 21.3638 1720.64 27.3333 1728 27.3333C1735.36 27.3333 1741.33 21.3638 1741.33 14C1741.33 6.6362 1735.36 0.666667 1728 0.666667C1720.64 0.666667 1714.67 6.6362 1714.67 14ZM14 16.5H28.7759V11.5H14V16.5ZM58.3276 16.5H87.8793V11.5H58.3276V16.5ZM117.431 16.5H146.983V11.5H117.431V16.5ZM176.534 16.5H206.086V11.5H176.534V16.5ZM235.638 16.5H265.19V11.5H235.638V16.5ZM294.741 16.5H324.293V11.5H294.741V16.5ZM353.845 16.5H383.397V11.5H353.845V16.5ZM412.948 16.5H442.5V11.5H412.948V16.5ZM472.052 16.5H501.603V11.5H472.052V16.5ZM531.155 16.5H560.707V11.5H531.155V16.5ZM590.259 16.5H619.81V11.5H590.259V16.5ZM649.362 16.5H678.914V11.5H649.362V16.5ZM708.465 16.5H738.017V11.5H708.465V16.5ZM767.569 16.5H797.12V11.5H767.569V16.5ZM826.672 16.5H856.224V11.5H826.672V16.5ZM885.776 16.5H915.327V11.5H885.776V16.5ZM944.879 16.5H974.431V11.5H944.879V16.5ZM1003.98 16.5H1033.53V11.5H1003.98V16.5ZM1063.09 16.5H1092.64V11.5H1063.09V16.5ZM1122.19 16.5H1151.74V11.5H1122.19V16.5ZM1181.29 16.5H1210.84V11.5H1181.29V16.5ZM1240.4 16.5H1269.95V11.5H1240.4V16.5ZM1299.5 16.5H1329.05V11.5H1299.5V16.5ZM1358.6 16.5H1388.16V11.5H1358.6V16.5ZM1417.71 16.5H1447.26V11.5H1417.71V16.5ZM1476.81 16.5H1506.36V11.5H1476.81V16.5ZM1535.91 16.5H1565.47V11.5H1535.91V16.5ZM1595.02 16.5H1624.57V11.5H1595.02V16.5ZM1654.12 16.5H1683.67V11.5H1654.12V16.5ZM1713.22 16.5H1728V11.5H1713.22V16.5Z" fill="black"/>
</svg>
