<svg width="73" height="72" viewBox="0 0 73 72" fill="none" xmlns="http://www.w3.org/2000/svg">
<circle cx="36.5" cy="36" r="36" fill="#635436"/>
<mask id="mask0_1_9982" style="mask-type:alpha" maskUnits="userSpaceOnUse" x="13" y="12" width="47" height="48">
<rect x="13.46" y="12.959" width="46.08" height="46.08" fill="#F7B32B"/>
</mask>
<g mask="url(#mask0_1_9982)">
<path d="M21.1398 51.3596C20.0838 51.3596 19.1801 50.984 18.4288 50.2326C17.6761 49.48 17.2998 48.5756 17.2998 47.5196V24.4796C17.2998 23.4236 17.6761 22.52 18.4288 21.7686C19.1801 21.016 20.0838 20.6396 21.1398 20.6396H51.8598C52.9158 20.6396 53.8201 21.016 54.5728 21.7686C55.3241 22.52 55.6998 23.4236 55.6998 24.4796V47.5196C55.6998 48.5756 55.3241 49.48 54.5728 50.2326C53.8201 50.984 52.9158 51.3596 51.8598 51.3596H21.1398ZM36.4998 37.9196L21.1398 28.3196V47.5196H51.8598V28.3196L36.4998 37.9196ZM36.4998 34.0796L51.8598 24.4796H21.1398L36.4998 34.0796ZM21.1398 28.3196V24.4796V47.5196V28.3196Z" fill="#F7B32B"/>
</g>
</svg>
