<svg width="72" height="72" viewBox="0 0 72 72" fill="none" xmlns="http://www.w3.org/2000/svg">
<circle cx="36" cy="36" r="36" fill="#635436"/>
<mask id="mask0_1_9997" style="mask-type:alpha" maskUnits="userSpaceOnUse" x="12" y="12" width="48" height="48">
<rect x="12.96" y="12.959" width="46.08" height="46.08" fill="#F7B32B"/>
</mask>
<g mask="url(#mask0_1_9997)">
<path d="M35.9998 55.1978C33.3118 55.1978 30.7998 54.6938 28.4638 53.6858C26.1278 52.6778 24.0958 51.3098 22.3678 49.5819C20.6398 47.8539 19.2798 45.8138 18.2878 43.4618C17.2958 41.1098 16.7998 38.5898 16.7998 35.9018C16.7998 33.2139 17.2958 30.7099 18.2878 28.3899C19.2798 26.0699 20.6398 24.0459 22.3678 22.3179C24.0958 20.5899 26.1278 19.2379 28.4638 18.2619C30.7998 17.2859 33.3118 16.7979 35.9998 16.7979C38.6878 16.7979 41.1998 17.2859 43.5358 18.2619C45.8718 19.2379 47.9038 20.5899 49.6318 22.3179C51.3598 24.0459 52.7198 26.0699 53.7118 28.3899C54.7038 30.7099 55.1998 33.2139 55.1998 35.9018C55.1998 38.5898 54.7038 41.1098 53.7118 43.4618C52.7198 45.8138 51.3598 47.8539 49.6318 49.5819C47.9038 51.3098 45.8718 52.6778 43.5358 53.6858C41.1998 54.6938 38.6878 55.1978 35.9998 55.1978ZM35.9998 52.4138C37.1198 51.2618 38.0558 49.9418 38.8078 48.4538C39.5598 46.9658 40.1758 45.1978 40.6558 43.1499H31.3918C31.8398 45.0698 32.4398 46.7978 33.1918 48.3338C33.9438 49.8698 34.8798 51.2298 35.9998 52.4138ZM31.9198 51.8378C31.1198 50.6218 30.4318 49.3098 29.8558 47.9018C29.2798 46.4939 28.7998 44.9098 28.4158 43.1499H21.2158C22.4318 45.4219 23.8398 47.2059 25.4398 48.5019C27.0398 49.7979 29.1998 50.9098 31.9198 51.8378ZM40.1278 51.7898C42.4318 51.0538 44.5038 49.9498 46.3438 48.4778C48.1838 47.0058 49.6638 45.2299 50.7838 43.1499H43.6318C43.2158 44.8778 42.7278 46.4458 42.1678 47.8538C41.6078 49.2618 40.9278 50.5738 40.1278 51.7898ZM20.2558 40.2698H27.8878C27.7918 39.4058 27.7358 38.6298 27.7198 37.9418C27.7038 37.2538 27.6958 36.5738 27.6958 35.9018C27.6958 35.1019 27.7118 34.3898 27.7438 33.7659C27.7758 33.1418 27.8398 32.4459 27.9358 31.6779H20.2558C20.0318 32.4459 19.8798 33.1339 19.7998 33.7418C19.7198 34.3498 19.6798 35.0698 19.6798 35.9018C19.6798 36.7338 19.7198 37.4778 19.7998 38.1339C19.8798 38.7899 20.0318 39.5019 20.2558 40.2698ZM30.8638 40.2698H41.1838C41.3118 39.2779 41.3918 38.4698 41.4238 37.8458C41.4558 37.2218 41.4718 36.5738 41.4718 35.9018C41.4718 35.2619 41.4558 34.6459 41.4238 34.0539C41.3918 33.4619 41.3118 32.6699 41.1838 31.6779H30.8638C30.7358 32.6699 30.6558 33.4619 30.6238 34.0539C30.5918 34.6459 30.5758 35.2619 30.5758 35.9018C30.5758 36.5738 30.5918 37.2218 30.6238 37.8458C30.6558 38.4698 30.7358 39.2779 30.8638 40.2698ZM44.0638 40.2698H51.7438C51.9678 39.5019 52.1198 38.7899 52.1998 38.1339C52.2798 37.4778 52.3198 36.7338 52.3198 35.9018C52.3198 35.0698 52.2798 34.3498 52.1998 33.7418C52.1198 33.1339 51.9678 32.4459 51.7438 31.6779H44.1118C44.2078 32.7979 44.2718 33.6538 44.3038 34.2458C44.3358 34.8378 44.3518 35.3898 44.3518 35.9018C44.3518 36.6059 44.3278 37.2698 44.2798 37.8939C44.2318 38.5179 44.1598 39.3099 44.0638 40.2698ZM43.5838 28.7979H50.7838C49.7278 26.5899 48.2798 24.7499 46.4398 23.2779C44.5998 21.8059 42.4798 20.7659 40.0798 20.1579C40.8798 21.3419 41.5598 22.6219 42.1198 23.9979C42.6798 25.3739 43.1678 26.9739 43.5838 28.7979ZM31.3918 28.7979H40.7038C40.3518 27.1019 39.7598 25.4619 38.9278 23.8779C38.0958 22.2939 37.1198 20.8939 35.9998 19.6779C34.9758 20.5419 34.1118 21.6779 33.4078 23.0859C32.7038 24.4939 32.0318 26.3979 31.3918 28.7979ZM21.2158 28.7979H28.4638C28.8158 27.0699 29.2638 25.5259 29.8078 24.1659C30.3518 22.8059 31.0398 21.4859 31.8718 20.2059C29.4718 20.8139 27.3758 21.8379 25.5838 23.2779C23.7918 24.7179 22.3358 26.5579 21.2158 28.7979Z" fill="#F7B32B"/>
</g>
</svg>
