<svg width="72" height="72" viewBox="0 0 72 72" fill="none" xmlns="http://www.w3.org/2000/svg">
<circle cx="36" cy="36" r="36" fill="#635436"/>
<mask id="mask0_1_10004" style="mask-type:alpha" maskUnits="userSpaceOnUse" x="12" y="12" width="48" height="48">
<rect x="12.96" y="12.959" width="46.08" height="46.08" fill="#F7B32B"/>
</mask>
<g mask="url(#mask0_1_10004)">
<path d="M22.56 53.2799C21.504 53.2799 20.5997 52.9042 19.847 52.1528C19.0957 51.4002 18.72 50.4959 18.72 49.4399V22.5599C18.72 21.5039 19.0957 20.5996 19.847 19.8469C20.5997 19.0956 21.504 18.7199 22.56 18.7199H30.624C31.072 17.5679 31.776 16.6399 32.736 15.9359C33.696 15.2319 34.784 14.8799 36 14.8799C37.216 14.8799 38.304 15.2319 39.264 15.9359C40.224 16.6399 40.928 17.5679 41.376 18.7199H49.44C50.496 18.7199 51.4003 19.0956 52.1529 19.8469C52.9043 20.5996 53.28 21.5039 53.28 22.5599V49.4399C53.28 50.4959 52.9043 51.4002 52.1529 52.1528C51.4003 52.9042 50.496 53.2799 49.44 53.2799H22.56ZM36 21.1199C36.416 21.1199 36.7603 20.9836 37.0329 20.7109C37.3043 20.4396 37.44 20.0959 37.44 19.6799C37.44 19.2639 37.3043 18.9196 37.0329 18.6469C36.7603 18.3756 36.416 18.2399 36 18.2399C35.584 18.2399 35.2403 18.3756 34.9689 18.6469C34.6963 18.9196 34.56 19.2639 34.56 19.6799C34.56 20.0959 34.6963 20.4396 34.9689 20.7109C35.2403 20.9836 35.584 21.1199 36 21.1199ZM22.56 47.2319C24.288 45.5359 26.2963 44.1996 28.5849 43.2229C30.8723 42.2476 33.344 41.7599 36 41.7599C38.656 41.7599 41.1283 42.2476 43.4169 43.2229C45.7043 44.1996 47.712 45.5359 49.44 47.2319V22.5599H22.56V47.2319ZM36 37.9199C37.856 37.9199 39.44 37.2639 40.752 35.9519C42.064 34.6399 42.72 33.0559 42.72 31.1999C42.72 29.3439 42.064 27.7599 40.752 26.4479C39.44 25.1359 37.856 24.4799 36 24.4799C34.144 24.4799 32.56 25.1359 31.248 26.4479C29.936 27.7599 29.28 29.3439 29.28 31.1999C29.28 33.0559 29.936 34.6399 31.248 35.9519C32.56 37.2639 34.144 37.9199 36 37.9199ZM26.4 49.4399H45.6V48.9599C44.256 47.8399 42.768 47.0002 41.136 46.4408C39.504 45.8802 37.792 45.5999 36 45.5999C34.208 45.5999 32.496 45.8802 30.864 46.4408C29.232 47.0002 27.744 47.8399 26.4 48.9599V49.4399ZM36 34.0799C35.2 34.0799 34.5203 33.7996 33.9609 33.2389C33.4003 32.6796 33.12 31.9999 33.12 31.1999C33.12 30.3999 33.4003 29.7202 33.9609 29.1608C34.5203 28.6002 35.2 28.3199 36 28.3199C36.8 28.3199 37.4797 28.6002 38.039 29.1608C38.5997 29.7202 38.88 30.3999 38.88 31.1999C38.88 31.9999 38.5997 32.6796 38.039 33.2389C37.4797 33.7996 36.8 34.0799 36 34.0799Z" fill="#F7B32B"/>
</g>
</svg>
