<svg width="73" height="72" viewBox="0 0 73 72" fill="none" xmlns="http://www.w3.org/2000/svg">
<circle cx="36.5" cy="36" r="36" fill="#635436"/>
<mask id="mask0_1_9975" style="mask-type:alpha" maskUnits="userSpaceOnUse" x="13" y="12" width="47" height="48">
<rect x="13.46" y="12.959" width="46.08" height="46.08" fill="#F7B32B"/>
</mask>
<g mask="url(#mask0_1_9975)">
<path d="M36.5001 35.9979C37.5561 35.9979 38.4605 35.6215 39.2131 34.8689C39.9645 34.1175 40.3401 33.2139 40.3401 32.1579C40.3401 31.1019 39.9645 30.1975 39.2131 29.4449C38.4605 28.6935 37.5561 28.3179 36.5001 28.3179C35.4441 28.3179 34.5405 28.6935 33.7891 29.4449C33.0365 30.1975 32.6601 31.1019 32.6601 32.1579C32.6601 33.2139 33.0365 34.1175 33.7891 34.8689C34.5405 35.6215 35.4441 35.9979 36.5001 35.9979ZM36.5001 50.1098C40.4041 46.5259 43.3001 43.2695 45.1881 40.3409C47.0761 37.4135 48.0201 34.8139 48.0201 32.5419C48.0201 29.0539 46.9078 26.1975 44.6832 23.9729C42.4598 21.7495 39.7321 20.6379 36.5001 20.6379C33.2681 20.6379 30.5398 21.7495 28.3152 23.9729C26.0918 26.1975 24.9801 29.0539 24.9801 32.5419C24.9801 34.8139 25.9241 37.4135 27.8121 40.3409C29.7001 43.2695 32.5961 46.5259 36.5001 50.1098ZM36.5001 55.1978C31.3481 50.8139 27.5005 46.7415 24.9571 42.9809C22.4125 39.2215 21.1401 35.7418 21.1401 32.5419C21.1401 27.7418 22.6845 23.9179 25.7731 21.0699C28.8605 18.2219 32.4361 16.7979 36.5001 16.7979C40.5641 16.7979 44.1398 18.2219 47.2272 21.0699C50.3158 23.9179 51.8601 27.7418 51.8601 32.5419C51.8601 35.7418 50.5885 39.2215 48.0451 42.9809C45.5005 46.7415 41.6521 50.8139 36.5001 55.1978Z" fill="#F7B32B"/>
</g>
</svg>
