<svg width="73" height="72" viewBox="0 0 73 72" fill="none" xmlns="http://www.w3.org/2000/svg">
<circle cx="36.5" cy="36" r="36" fill="#635436"/>
<mask id="mask0_1_9989" style="mask-type:alpha" maskUnits="userSpaceOnUse" x="13" y="12" width="47" height="48">
<rect x="13.46" y="12.959" width="46.08" height="46.08" fill="#F7B32B"/>
</mask>
<g mask="url(#mask0_1_9989)">
<path d="M51.764 53.2788C47.636 53.2788 43.6123 52.3584 39.6929 50.5178C35.7723 48.6784 32.3003 46.2464 29.2769 43.2218C26.2523 40.1984 23.8203 36.7264 21.9809 32.8058C20.1403 28.8864 19.22 24.8628 19.22 20.7348C19.22 20.1588 19.412 19.6787 19.796 19.2947C20.18 18.9107 20.66 18.7188 21.236 18.7188H29.012C29.46 18.7188 29.86 18.8627 30.212 19.1507C30.564 19.4387 30.772 19.8067 30.836 20.2548L32.084 26.9748C32.148 27.4228 32.1403 27.8304 32.0609 28.1978C31.9803 28.5664 31.796 28.8947 31.508 29.1827L26.852 33.8868C28.196 36.1908 29.8843 38.3507 31.9169 40.3668C33.9483 42.3827 36.18 44.1268 38.612 45.5988L43.124 41.0868C43.412 40.7987 43.7883 40.5824 44.2529 40.4378C44.7163 40.2944 45.172 40.2548 45.62 40.3188L52.244 41.6628C52.692 41.7588 53.06 41.9744 53.348 42.3098C53.636 42.6464 53.78 43.0387 53.78 43.4867V51.2628C53.78 51.8388 53.588 52.3188 53.204 52.7028C52.82 53.0868 52.34 53.2788 51.764 53.2788ZM25.028 30.2388L28.196 27.0708L27.38 22.5588H23.108C23.268 23.8708 23.492 25.1668 23.78 26.4468C24.068 27.7268 24.484 28.9908 25.028 30.2388ZM42.212 47.4228C43.46 47.9668 44.7323 48.3988 46.0289 48.7188C47.3243 49.0388 48.628 49.2468 49.94 49.3428V45.1188L45.428 44.2068L42.212 47.4228Z" fill="#F7B32B"/>
</g>
</svg>
